<?xml version="1.0" standalone="no"?>
<!DOCTYPE svg PUBLIC "-//W3C//DTD SVG 20010904//EN"
        "http://www.w3.org/TR/2001/REC-SVG-20010904/DTD/svg10.dtd">
<svg version="1.0" xmlns="http://www.w3.org/2000/svg"
     width="1280.000000pt" height="1279.000000pt" viewBox="0 0 1280.000000 1279.000000"
     preserveAspectRatio="xMidYMid meet">
    <metadata>
        Created by potrace 1.15, written by Peter Selinger 2001-2017
    </metadata>
    <g transform="translate(0.000000,1279.000000) scale(0.100000,-0.100000)"
       fill="#000000" stroke="none">
        <path d="M6045 12780 c-756 -58 -1287 -170 -1906 -405 -485 -184 -839 -365
-1244 -634 -455 -303 -728 -523 -1019 -822 -416 -428 -644 -715 -918 -1154
-345 -553 -603 -1173 -773 -1857 -98 -392 -142 -693 -175 -1183 -26 -393 7
-965 81 -1407 33 -202 144 -652 214 -873 152 -476 399 -1012 653 -1420 227
-363 367 -549 651 -865 456 -507 718 -733 1296 -1117 548 -364 1099 -612 1830
-822 496 -142 1221 -231 1775 -218 565 14 1109 90 1555 218 778 224 1350 488
1994 922 571 385 1229 1045 1610 1616 434 648 708 1242 915 1981 162 581 245
1376 206 1985 -47 735 -159 1271 -397 1910 -228 612 -571 1228 -944 1697 -225
282 -306 372 -536 599 -519 514 -997 856 -1658 1187 -627 313 -1378 542 -2025
617 -395 46 -910 65 -1185 45z"/>
    </g>
</svg>
